<svg viewBox="0 0 1000 1350" xmlns="http://www.w3.org/2000/svg">
  <!-- Define styles -->
  <defs>
    <style>
      .box { fill: #f8f9fa; stroke: #2c3e50; stroke-width: 2; }
      .level1-box { fill: #e3f2fd; stroke: #1976d2; stroke-width: 2; }
      .level2-box { fill: #fff3e0; stroke: #f57c00; stroke-width: 2; }
      .decision { fill: #fff9c4; stroke: #f9a825; stroke-width: 2; }
      .action { fill: #f3e5f5; stroke: #7b1fa2; stroke-width: 2; }
      .note-box { fill: #e8f5e9; stroke: #43a047; stroke-width: 2; }
      .title-text { font-family: Arial, sans-serif; font-size: 16px; font-weight: bold; fill: #2c3e50; }
      .body-text { font-family: Arial, sans-serif; font-size: 13px; fill: #2c3e50; }
      .small-text { font-family: Arial, sans-serif; font-size: 11px; fill: #546e7a; }
      .arrow { stroke: #2c3e50; stroke-width: 2; fill: none; marker-end: url(#arrowhead); }
    </style>
    <marker id="arrowhead" markerWidth="10" markerHeight="10" refX="9" refY="3" orient="auto">
      <polygon points="0 0, 10 3, 0 6" fill="#2c3e50" />
    </marker>
  </defs>

  <!-- Title -->
  <text x="500" y="30" class="title-text" text-anchor="middle" font-size="18">Preliminary Analyses: Descriptive Statistics and Data Screening</text>
  
  <!-- Important Note Box at Top -->
  <rect x="200" y="50" width="600" height="60" class="note-box" rx="5"/>
  <text x="500" y="72" class="body-text" text-anchor="middle" font-weight="bold" style="fill: #2e7d32;">Note: Data screening conducted on complete/imputed dataset</text>
  <text x="500" y="92" class="small-text" text-anchor="middle" style="fill: #2e7d32;">following Missing Data Analysis (see previous section)</text>
  
  <!-- Arrow from note to Step 1 -->
  <path d="M 500 110 L 500 140" class="arrow"/>
  
  <!-- Step 1: Calculate Descriptives -->
  <rect x="250" y="140" width="500" height="80" class="box" rx="5"/>
  <text x="500" y="165" class="title-text" text-anchor="middle">Step 1: Calculate Descriptive Statistics</text>
  <text x="500" y="185" class="body-text" text-anchor="middle">Compute means, SDs, ranges for all variables</text>
  <text x="500" y="205" class="small-text" text-anchor="middle">(Both aggregate and within-person for Level 1)</text>
  
  <!-- Arrow down -->
  <path d="M 500 220 L 500 250" class="arrow"/>
  
  <!-- Phase 1 Label -->
  <rect x="50" y="250" width="900" height="30" style="fill: #eceff1; stroke: #607d8b; stroke-width: 2;" rx="3"/>
  <text x="500" y="270" class="body-text" text-anchor="middle" font-weight="bold" style="fill: #37474f;">PHASE 1: Pre-Model Screening (Univariate and Multivariate Outliers)</text>
  
  <!-- Arrow down -->
  <path d="M 500 280 L 500 310" class="arrow"/>
  
  <!-- Split into Level 1 and Level 2 -->
  <rect x="50" y="310" width="400" height="100" class="level1-box" rx="5"/>
  <text x="250" y="335" class="title-text" text-anchor="middle">Level 1 Screening</text>
  <text x="250" y="355" class="body-text" text-anchor="middle">Performance scores and trial number</text>
  <text x="250" y="375" class="small-text" text-anchor="middle">• Identify outliers: |z| greater than 3.29</text>
  <text x="250" y="392" class="small-text" text-anchor="middle">• Screen with caution (genuine variability)</text>
  
  <rect x="550" y="310" width="400" height="100" class="level2-box" rx="5"/>
  <text x="750" y="335" class="title-text" text-anchor="middle">Level 2 Screening</text>
  <text x="750" y="355" class="body-text" text-anchor="middle">AI, Principles, Ability, Conscientiousness</text>
  <text x="750" y="375" class="small-text" text-anchor="middle">• Univariate: |z| greater than 3.29 (boxplots)</text>
  <text x="750" y="392" class="small-text" text-anchor="middle">• Multivariate: Mahalanobis (χ², p less than .001)</text>
  
  <!-- Arrows converging -->
  <path d="M 250 410 L 250 450 L 500 450" class="arrow"/>
  <path d="M 750 410 L 750 450 L 500 450" class="arrow"/>
  <path d="M 500 450 L 500 480" class="arrow"/>
  
  <!-- Pre-model decision diamond -->
  <polygon points="500,480 650,540 500,600 350,540" class="decision"/>
  <text x="500" y="535" class="body-text" text-anchor="middle">Pre-model outliers</text>
  <text x="500" y="555" class="body-text" text-anchor="middle">identified?</text>
  
  <!-- Yes path from pre-model -->
  <path d="M 650 540 L 800 540 L 800 670" class="arrow"/>
  <text x="720" y="535" class="body-text">Yes</text>
  
  <!-- Investigation box for pre-model outliers -->
  <rect x="700" y="670" width="200" height="80" class="action" rx="5"/>
  <text x="800" y="695" class="title-text" text-anchor="middle">Investigate Cases</text>
  <text x="800" y="715" class="small-text" text-anchor="middle">• Check data entry errors</text>
  <text x="800" y="730" class="small-text" text-anchor="middle">• Assess plausibility</text>
  <text x="800" y="745" class="small-text" text-anchor="middle">• Document decisions</text>
  
  <!-- Arrow from investigation to phase 2 -->
  <path d="M 800 750 L 800 800 L 500 800" class="arrow"/>
  
  <!-- No path - directly to phase 2 -->
  <path d="M 350 540 L 200 540 L 200 800 L 500 800" class="arrow"/>
  <text x="320" y="535" class="body-text">No</text>
  
  <!-- Phase 2 Label -->
  <path d="M 500 800 L 500 830" class="arrow"/>
  <rect x="50" y="830" width="900" height="30" style="fill: #eceff1; stroke: #607d8b; stroke-width: 2;" rx="3"/>
  <text x="500" y="850" class="body-text" text-anchor="middle" font-weight="bold" style="fill: #37474f;">PHASE 2: Post-Model Diagnostics (After Fitting Preliminary Model)</text>
  
  <!-- Arrow down -->
  <path d="M 500 860 L 500 890" class="arrow"/>
  
  <!-- Combined model diagnostics box -->
  <rect x="150" y="890" width="700" height="140" class="box" rx="5"/>
  <text x="500" y="915" class="title-text" text-anchor="middle">Fit Preliminary Model and Extract Diagnostics</text>
  <text x="500" y="935" class="body-text" text-anchor="middle">Review all influence diagnostics simultaneously:</text>
  <text x="500" y="955" class="small-text" text-anchor="middle">• Studentized residuals: Flag if |t| greater than 2 (both levels)</text>
  <text x="500" y="972" class="small-text" text-anchor="middle">• Cook's D, dfBeta, leverage values</text>
  <text x="500" y="989" class="small-text" text-anchor="middle">• Plot Level-2 residuals vs. predictors (Snijders and Bosker, 2011)</text>
  <text x="500" y="1006" class="small-text" text-anchor="middle">• Identify cases flagged by multiple diagnostics</text>
  <text x="500" y="1023" class="small-text" text-anchor="middle" font-style="italic">All diagnostics come from same fitted model—reviewed together</text>
  
  <!-- Arrow down -->
  <path d="M 500 1030 L 500 1060" class="arrow"/>
  
  <!-- Post-model decision diamond -->
  <polygon points="500,1060 650,1120 500,1180 350,1120" class="decision"/>
  <text x="500" y="1110" class="body-text" text-anchor="middle">Influential cases</text>
  <text x="500" y="1130" class="body-text" text-anchor="middle">identified?</text>
  <text x="500" y="1150" class="small-text" text-anchor="middle">(Flagged by multiple diagnostics)</text>
  
  <!-- Yes path -->
  <path d="M 650 1120 L 750 1120 L 750 1210" class="arrow"/>
  <text x="720" y="1115" class="body-text">Yes</text>
  
  <!-- Post-model investigation and sensitivity -->
  <rect x="650" y="1210" width="200" height="100" class="action" rx="5"/>
  <text x="750" y="1235" class="title-text" text-anchor="middle">Investigate and Test</text>
  <text x="750" y="1255" class="small-text" text-anchor="middle">• Review flagged cases</text>
  <text x="750" y="1270" class="small-text" text-anchor="middle">• Winsorize only if measurement</text>
  <text x="750" y="1285" class="small-text" text-anchor="middle">  error evident</text>
  <text x="750" y="1300" class="small-text" text-anchor="middle" font-weight="bold">• Run sensitivity analyses</text>
  
  <!-- Arrow from sensitivity to end -->
  <path d="M 750 1310 L 750 1360 L 500 1360 L 500 1390" class="arrow"/>
  
  <!-- No path - directly to end -->
  <path d="M 350 1120 L 250 1120 L 250 1360 L 500 1360 L 500 1390" class="arrow"/>
  <text x="320" y="1115" class="body-text">No</text>
  
  <!-- End box -->
  <rect x="300" y="1390" width="400" height="60" class="box" rx="5" style="fill: #e8f5e9; stroke: #43a047;"/>
  <text x="500" y="1415" class="title-text" text-anchor="middle" style="fill: #2e7d32;">Proceed to ICC Calculation</text>
  <text x="500" y="1435" class="title-text" text-anchor="middle" style="fill: #2e7d32;">and Random Effects Structure</text>
  
  <!-- Legend -->
  <text x="50" y="1500" class="body-text" font-weight="bold">Legend:</text>
  <rect x="50" y="1510" width="30" height="20" class="level1-box"/>
  <text x="85" y="1525" class="small-text">Level 1</text>
  <rect x="150" y="1510" width="30" height="20" class="level2-box"/>
  <text x="185" y="1525" class="small-text">Level 2</text>
  <rect x="250" y="1510" width="30" height="20" class="decision"/>
  <text x="285" y="1525" class="small-text">Decision</text>
  <rect x="370" y="1510" width="30" height="20" class="action"/>
  <text x="405" y="1525" class="small-text">Action</text>
  
  <!-- Key Citations Box -->
  <rect x="50" y="1550" width="900" height="135" style="fill: #fafafa; stroke: #bdbdbd; stroke-width: 1;" rx="3"/>
  <text x="70" y="1570" class="small-text" font-weight="bold">Key References and Two-Phase Rationale:</text>
  <text x="70" y="1588" class="small-text" font-weight="bold">Phase 1 (Pre-Model):</text>
  <text x="70" y="1603" class="small-text">• Univariate: Tabachnick and Fidell (2013)—|z| greater than 3.29</text>
  <text x="70" y="1618" class="small-text">• Multivariate: Mahalanobis distance at χ² critical (p less than .001)</text>
  <text x="70" y="1633" class="small-text" font-weight="bold">Phase 2 (Post-Model):</text>
  <text x="70" y="1648" class="small-text">• All diagnostics extracted from single fitted model—reviewed together, not sequentially</text>
  <text x="70" y="1663" class="small-text">• Model diagnostics: Garson (2013, 2023); Snijders and Bosker (2011)</text>
  <text x="70" y="1678" class="small-text" font-weight="bold">• Winsorizing criterion: Only when evidence of AI/technical measurement error (e.g., speech-to-text failures),</text>
  <text x="70" y="1693" class="small-text" font-weight="bold">  NOT for genuine performance variability. Decisions made case-by-case with full documentation.</text>
</svg>