<svg viewBox="0 0 1000 1450" xmlns="http://www.w3.org/2000/svg">
  <!-- Define styles -->
  <defs>
    <style>
      .box { fill: #f8f9fa; stroke: #2c3e50; stroke-width: 2; }
      .level1-box { fill: #e3f2fd; stroke: #1976d2; stroke-width: 2; }
      .level2-box { fill: #fff3e0; stroke: #f57c00; stroke-width: 2; }
      .decision { fill: #fff9c4; stroke: #f9a825; stroke-width: 2; }
      .action { fill: #f3e5f5; stroke: #7b1fa2; stroke-width: 2; }
      .title-text { font-family: Arial, sans-serif; font-size: 16px; font-weight: bold; fill: #2c3e50; }
      .body-text { font-family: Arial, sans-serif; font-size: 13px; fill: #2c3e50; }
      .small-text { font-family: Arial, sans-serif; font-size: 11px; fill: #546e7a; }
      .arrow { stroke: #2c3e50; stroke-width: 2; fill: none; marker-end: url(#arrowhead); }
    </style>
    <marker id="arrowhead" markerWidth="10" markerHeight="10" refX="9" refY="3" orient="auto">
      <polygon points="0 0, 10 3, 0 6" fill="#2c3e50" />
    </marker>
  </defs>

  <!-- Title -->
  <text x="500" y="30" class="title-text" text-anchor="middle" font-size="18">Preliminary Analyses: Descriptive Statistics &amp; Data Screening</text>
  
  <!-- Step 1: Calculate Descriptives -->
  <rect x="250" y="60" width="500" height="80" class="box" rx="5"/>
  <text x="500" y="85" class="title-text" text-anchor="middle">Step 1: Calculate Descriptive Statistics</text>
  <text x="500" y="105" class="body-text" text-anchor="middle">Compute means, SDs, ranges for all variables</text>
  <text x="500" y="125" class="small-text" text-anchor="middle">(Both aggregate and within-person for Level 1)</text>
  
  <!-- Arrow down -->
  <path d="M 500 140 L 500 170" class="arrow"/>
  
  <!-- Split into Level 1 and Level 2 -->
  <rect x="50" y="170" width="400" height="100" class="level1-box" rx="5"/>
  <text x="250" y="195" class="title-text" text-anchor="middle">Level 1 Screening</text>
  <text x="250" y="215" class="body-text" text-anchor="middle">Performance scores &amp; trial number</text>
  <text x="250" y="235" class="small-text" text-anchor="middle">• Identify outliers: |z| &gt; 3.29</text>
  <text x="250" y="252" class="small-text" text-anchor="middle">• Screen with caution (genuine variability)</text>
  
  <rect x="550" y="170" width="400" height="100" class="level2-box" rx="5"/>
  <text x="750" y="195" class="title-text" text-anchor="middle">Level 2 Screening</text>
  <text x="750" y="215" class="body-text" text-anchor="middle">Ability, Conscientiousness</text>
  <text x="750" y="235" class="small-text" text-anchor="middle">• Univariate: |z| &gt; 3.29 (boxplots)</text>
  <text x="750" y="252" class="small-text" text-anchor="middle">• Multivariate: Mahalanobis (χ², p &lt; .001)</text>
  
  <!-- Arrows converging -->
  <path d="M 250 270 L 250 320 L 500 320" class="arrow"/>
  <path d="M 750 270 L 750 320 L 500 320" class="arrow"/>
  <path d="M 500 320 L 500 340" class="arrow"/>
  
  <!-- Step 2: Model-Based Diagnostics -->
  <rect x="200" y="340" width="600" height="100" class="box" rx="5"/>
  <text x="500" y="365" class="title-text" text-anchor="middle">Step 2: Model-Based Influence Diagnostics</text>
  <text x="500" y="385" class="body-text" text-anchor="middle">(After model estimation)</text>
  <text x="500" y="405" class="small-text" text-anchor="middle">• Cook's D, dfBeta, leverage values</text>
  <text x="500" y="422" class="small-text" text-anchor="middle">• Plot Level-2 residuals vs. predictors (Snijders &amp; Bosker, 2011)</text>
  
  <!-- Arrow down -->
  <path d="M 500 440 L 500 470" class="arrow"/>
  
  <!-- Step 3: Studentized Residuals -->
  <rect x="200" y="470" width="600" height="80" class="box" rx="5"/>
  <text x="500" y="495" class="title-text" text-anchor="middle">Step 3: Examine Studentized Residuals</text>
  <text x="500" y="515" class="body-text" text-anchor="middle">Flag observations: |t| &gt; 2 (both levels)</text>
  <text x="500" y="535" class="small-text" text-anchor="middle">Identify influential or poorly fit cases</text>
  
  <!-- Arrow down -->
  <path d="M 500 550 L 500 580" class="arrow"/>
  
  <!-- Decision Diamond -->
  <polygon points="500,580 650,640 500,700 350,640" class="decision"/>
  <text x="500" y="635" class="body-text" text-anchor="middle">Outliers</text>
  <text x="500" y="655" class="body-text" text-anchor="middle">Identified?</text>
  
  <!-- Yes path -->
  <path d="M 650 640 L 750 640 L 750 760" class="arrow"/>
  <text x="720" y="635" class="body-text">Yes</text>
  
  <!-- Outlier Investigation Box -->
  <rect x="550" y="760" width="400" height="140" class="action" rx="5"/>
  <text x="750" y="785" class="title-text" text-anchor="middle">Step 4a: Investigate Each Case</text>
  <text x="750" y="808" class="small-text" text-anchor="middle">• Check for data entry errors</text>
  <text x="750" y="825" class="small-text" text-anchor="middle">• Review AI transcripts (Level 1 outliers)</text>
  <text x="750" y="842" class="small-text" text-anchor="middle">• Assess consistency with trajectory</text>
  <text x="750" y="859" class="small-text" text-anchor="middle">• Consider robust estimation if needed</text>
  <text x="750" y="876" class="body-text" text-anchor="middle" font-weight="bold">Winsorize ONLY if measurement error evident</text>
  <text x="750" y="893" class="small-text" text-anchor="middle" font-style="italic">(Case-by-case decisions; document all)</text>
  
  <!-- Arrow down from investigation -->
  <path d="M 750 900 L 750 950" class="arrow"/>
  
  <!-- Sensitivity Analysis Box -->
  <rect x="550" y="950" width="400" height="100" class="action" rx="5"/>
  <text x="750" y="975" class="title-text" text-anchor="middle">Step 4b: Conduct Sensitivity Analysis</text>
  <text x="750" y="995" class="body-text" text-anchor="middle">Re-run analyses WITH and WITHOUT</text>
  <text x="750" y="1012" class="body-text" text-anchor="middle">flagged/treated cases</text>
  <text x="750" y="1032" class="small-text" text-anchor="middle">Report if conclusions differ meaningfully</text>
  
  <!-- Arrow from sensitivity to end -->
  <path d="M 750 1050 L 750 1100 L 500 1100 L 500 1130" class="arrow"/>
  
  <!-- No path - directly to end -->
  <path d="M 350 640 L 250 640 L 250 1100 L 500 1100 L 500 1130" class="arrow"/>
  <text x="220" y="635" class="body-text">No</text>
  
  <!-- End box -->
  <rect x="350" y="1130" width="300" height="60" class="box" rx="5" style="fill: #e8f5e9; stroke: #43a047;"/>
  <text x="500" y="1155" class="title-text" text-anchor="middle" style="fill: #2e7d32;">Proceed to Missing Data</text>
  <text x="500" y="1175" class="title-text" text-anchor="middle" style="fill: #2e7d32;">Analysis</text>
  
  <!-- Legend -->
  <text x="50" y="1240" class="body-text" font-weight="bold">Legend:</text>
  <rect x="50" y="1250" width="30" height="20" class="level1-box"/>
  <text x="85" y="1265" class="small-text">Level 1</text>
  <rect x="150" y="1250" width="30" height="20" class="level2-box"/>
  <text x="185" y="1265" class="small-text">Level 2</text>
  <rect x="250" y="1250" width="30" height="20" class="decision"/>
  <text x="285" y="1265" class="small-text">Decision</text>
  <rect x="370" y="1250" width="30" height="20" class="action"/>
  <text x="405" y="1265" class="small-text">Action/Treatment</text>
  
  <!-- Key Citations Box -->
  <rect x="50" y="1290" width="900" height="120" style="fill: #fafafa; stroke: #bdbdbd; stroke-width: 1;" rx="3"/>
  <text x="70" y="1310" class="small-text" font-weight="bold">Key References &amp; Decision Rules:</text>
  <text x="70" y="1328" class="small-text">• Univariate outliers: Tabachnick &amp; Fidell (2013) - |z| &gt; 3.29</text>
  <text x="70" y="1343" class="small-text">• Multivariate outliers: Mahalanobis distance at χ² critical (p &lt; .001)</text>
  <text x="70" y="1358" class="small-text">• Model diagnostics: Garson (2013); Snijders &amp; Bosker (2011)</text>
  <text x="70" y="1373" class="small-text">• Studentized residuals: Garson (2023)</text>
  <text x="70" y="1388" class="small-text" font-weight="bold">• Winsorizing criterion: Only when evidence of AI/technical measurement error (e.g., speech-to-text failures),</text>
  <text x="70" y="1403" class="small-text" font-weight="bold">  NOT for genuine performance variability. Decisions made case-by-case with full documentation.</text>
</svg>